<svg width="256" height="256" viewBox="0 0 256 256" fill="none" xmlns="http://www.w3.org/2000/svg">
  <rect width="256" height="256" rx="56" fill="#101010"/>
  <rect x="20" y="20" width="216" height="216" rx="44" fill="#1B1D28" stroke="#2A2D39" stroke-width="4"/>
  <path d="M20 64C20 39.6995 39.6995 20 64 20H192C216.301 20 236 39.6995 236 64V78H20V64Z" fill="#FF4931"/>
  <path d="M126 112C118 105 108 101 98 101C73 101 54 122 54 148C54 174 73 195 98 195C108 195 118 191 126 184" stroke="#F3F3F3" stroke-width="20" stroke-linecap="round" stroke-linejoin="round"/>
  <path d="M146 122L176 148L146 174" stroke="#FF4931" stroke-width="18" stroke-linecap="round" stroke-linejoin="round"/>
</svg>
