<svg width="256" height="256" viewBox="0 0 1000 1000" fill="none" xmlns="http://www.w3.org/2000/svg">
  <rect width="1000" height="1000" rx="220" fill="#101010"/>
  <rect x="148" y="118" width="260" height="34" rx="17" fill="#FF4931"/>
  <g transform="translate(74 74)">
    <path
      d="M892.95,447.19L552.77,107.06v-.14H106.92v445.89l340.27,340.26h445.89l-.13-445.89ZM868.91,447.19h-316.13V131.19l316.13,315.99ZM123.99,123.99h411.72v323.2h-88.52v88.56H123.99V123.99ZM535.71,464.25v71.5s-71.46,0-71.46,0v-71.5s71.46,0,71.46,0ZM131.04,552.81h316.15v316.13l-316.15-316.13ZM876.01,876.01h-411.76v-323.2h88.52v-88.56h323.24v411.76Z"
      fill="#F3F3F3"
    />
    <g fill="#F3F3F3">
      <polygon points="290.55 255.08 290.55 272.11 273.12 272.11 273.12 389.18 255.88 389.18 255.88 281.12 236.53 272.11 236.53 255.08 290.55 255.08"/>
      <polygon points="366.8 255.08 346.7 389.18 321.03 389.18 300.92 255.08 318.53 255.08 329.85 330.57 331.7 342.92 336.02 342.92 337.88 330.57 349.19 255.08 366.8 255.08"/>
      <polygon points="424.68 372.12 424.68 389.18 382.92 389.18 382.92 255.08 400.17 255.08 400.17 372.12 424.68 372.12"/>
    </g>
  </g>
</svg>
