<svg width="1080" height="1350" viewBox="0 0 1080 1350" fill="none" xmlns="http://www.w3.org/2000/svg">
  <rect width="1080" height="1350" fill="#F4EEE6"/>
  <circle cx="936" cy="188" r="264" fill="#E7B08F"/>
  <circle cx="143" cy="1162" r="218" fill="#D6E2DA"/>
  <rect x="52" y="52" width="976" height="1246" rx="34" fill="#FFFDF8" stroke="#D7CBBE"/>
  <text x="108" y="148" fill="#B85F38" font-family="Helvetica" font-size="28" letter-spacing="6">FREE WEBSITE STARTER</text>
  <text x="108" y="312" fill="#171412" font-family="Georgia" font-size="108" font-weight="700">
    <tspan x="108" dy="0">Build your</tspan>
    <tspan x="108" dy="106">website for</tspan>
    <tspan x="108" dy="106">free</tspan>
  </text>
  <text x="112" y="675" fill="#5E564E" font-family="Helvetica" font-size="35">
    <tspan x="112" dy="0">Codex + GitHub + GitHub Pages</tspan>
    <tspan x="112" dy="52">A clean starting point with a custom-domain path built in.</tspan>
  </text>
  <rect x="108" y="779" width="864" height="390" rx="26" fill="#F7F1E8" stroke="#D7CBBE"/>
  <rect x="150" y="829" width="780" height="42" rx="12" fill="#EFE5D9"/>
  <circle cx="185" cy="850" r="9" fill="#C86E45"/>
  <circle cx="214" cy="850" r="9" fill="#E2B35B"/>
  <circle cx="243" cy="850" r="9" fill="#86AA96"/>
  <rect x="150" y="906" width="336" height="176" rx="18" fill="#FFFDF8"/>
  <rect x="528" y="906" width="176" height="176" rx="18" fill="#DCE6DF"/>
  <rect x="722" y="906" width="208" height="78" rx="18" fill="#E7B08F"/>
  <rect x="722" y="1004" width="208" height="78" rx="18" fill="#EEE6DA"/>
  <text x="183" y="979" fill="#171412" font-family="Georgia" font-size="44" font-weight="700">Your site</text>
  <text x="183" y="1030" fill="#6A6258" font-family="Helvetica" font-size="24">one page, fast to ship</text>
  <text x="108" y="1236" fill="#6A6258" font-family="Helvetica" font-size="24">Default recommendation: no framework</text>
</svg>
