<svg xmlns="http://www.w3.org/2000/svg" width="1600" height="1000" viewBox="0 0 1600 1000" fill="none">
  <defs>
    <linearGradient id="bg1" x1="110" y1="96" x2="1490" y2="920" gradientUnits="userSpaceOnUse">
      <stop stop-color="#FFFFFF"/>
      <stop offset="1" stop-color="#F5F5F7"/>
    </linearGradient>
  </defs>
  <rect width="1600" height="1000" fill="#F5F5F7"/>
  <rect x="56" y="56" width="1488" height="888" rx="36" fill="url(#bg1)" stroke="#DFE1E5" stroke-width="4"/>
  <rect x="56" y="56" width="1488" height="92" rx="36" fill="#101010"/>
  <circle cx="110" cy="102" r="10" fill="#FF7B66"/>
  <circle cx="142" cy="102" r="10" fill="#FFCB5B"/>
  <circle cx="174" cy="102" r="10" fill="#55D784"/>
  <text x="220" y="110" fill="#FFFFFF" font-family="JetBrains Mono, monospace" font-size="24" letter-spacing="2">github.com/danlex/free-website</text>

  <text x="120" y="220" fill="#FF4931" font-family="JetBrains Mono, monospace" font-size="24" letter-spacing="3">STEP 1</text>
  <text x="120" y="292" fill="#101010" font-family="Inter, Arial, sans-serif" font-size="68" font-weight="800">Use This Template on GitHub</text>
  <text x="120" y="346" fill="#5E6168" font-family="Inter, Arial, sans-serif" font-size="30">Make your own copy first, then everything else happens in your repo.</text>

  <rect x="120" y="404" width="950" height="404" rx="28" fill="#FFFFFF" stroke="#E3E5E8" stroke-width="4"/>
  <rect x="160" y="452" width="220" height="18" rx="9" fill="#E9EBEF"/>
  <rect x="160" y="490" width="360" height="18" rx="9" fill="#E9EBEF"/>
  <rect x="160" y="546" width="590" height="122" rx="22" fill="#F7F7F9" stroke="#ECEEF2" stroke-width="3"/>
  <text x="192" y="596" fill="#101010" font-family="Inter, Arial, sans-serif" font-size="28" font-weight="700">danlex / free-website</text>
  <text x="192" y="640" fill="#5E6168" font-family="Inter, Arial, sans-serif" font-size="25">Template starter for building a free website with Codex and GitHub Pages.</text>

  <rect x="1130" y="404" width="294" height="404" rx="28" fill="#101010"/>
  <text x="1170" y="458" fill="#FFFFFF" font-family="Inter, Arial, sans-serif" font-size="28" font-weight="700">Create your copy</text>
  <rect x="1170" y="510" width="214" height="72" rx="18" fill="#FF4931"/>
  <text x="1206" y="556" fill="#FFFFFF" font-family="Inter, Arial, sans-serif" font-size="26" font-weight="800">Use This Template</text>
  <rect x="1170" y="604" width="214" height="64" rx="18" fill="#1B1B1F" stroke="#32343A" stroke-width="3"/>
  <text x="1247" y="645" fill="#FFFFFF" font-family="Inter, Arial, sans-serif" font-size="24" font-weight="700">Fork</text>
  <text x="1170" y="720" fill="#9AA0A9" font-family="Inter, Arial, sans-serif" font-size="23">If template mode is off, fork the repo and continue from there.</text>

  <rect x="120" y="842" width="1304" height="56" rx="18" fill="#FFF2EE"/>
  <text x="152" y="878" fill="#A13B2D" font-family="JetBrains Mono, monospace" font-size="22">Goal: end this step with your own repository, not a local clone of the original.</text>
</svg>
