<svg xmlns="http://www.w3.org/2000/svg" width="1600" height="1000" viewBox="0 0 1600 1000" fill="none">
  <rect width="1600" height="1000" fill="#F5F5F7"/>
  <rect x="56" y="56" width="1488" height="888" rx="36" fill="#FFFFFF" stroke="#E1E4E8" stroke-width="4"/>
  <rect x="56" y="56" width="1488" height="92" rx="36" fill="#101010"/>
  <circle cx="110" cy="102" r="10" fill="#FF7B66"/>
  <circle cx="142" cy="102" r="10" fill="#FFCB5B"/>
  <circle cx="174" cy="102" r="10" fill="#55D784"/>
  <text x="220" y="110" fill="#FFFFFF" font-family="JetBrains Mono, monospace" font-size="24">Prompt recipe</text>

  <text x="120" y="220" fill="#FF4931" font-family="JetBrains Mono, monospace" font-size="24" letter-spacing="3">STEP 4</text>
  <text x="120" y="292" fill="#101010" font-family="Inter, Arial, sans-serif" font-size="68" font-weight="800">Paste one of the prompt recipes</text>
  <text x="120" y="346" fill="#5E6168" font-family="Inter, Arial, sans-serif" font-size="30">Start with the landing-page prompt if you want the fastest first draft.</text>

  <rect x="120" y="404" width="1360" height="460" rx="28" fill="#101010"/>
  <text x="168" y="462" fill="#FF4931" font-family="JetBrains Mono, monospace" font-size="24">prompts/landing-page.md</text>
  <text x="168" y="530" fill="#FFFFFF" font-family="JetBrains Mono, monospace" font-size="29">Turn this repository into a landing page for [product or business].</text>
  <text x="168" y="590" fill="#FFFFFF" font-family="JetBrains Mono, monospace" font-size="29">Requirements:</text>
  <text x="204" y="638" fill="#B8BDC6" font-family="JetBrains Mono, monospace" font-size="27">- Keep it static HTML, CSS, and vanilla JavaScript only</text>
  <text x="204" y="684" fill="#B8BDC6" font-family="JetBrains Mono, monospace" font-size="27">- Keep GitHub Pages compatibility</text>
  <text x="204" y="730" fill="#B8BDC6" font-family="JetBrains Mono, monospace" font-size="27">- Use a clean modern responsive layout</text>
  <text x="204" y="776" fill="#B8BDC6" font-family="JetBrains Mono, monospace" font-size="27">- Add hero, benefits, proof, CTA, FAQ, and contact sections</text>

  <rect x="120" y="892" width="1360" height="26" rx="13" fill="#FFE0D8"/>
  <rect x="120" y="892" width="944" height="26" rx="13" fill="#FF4931"/>
</svg>
