<svg xmlns="http://www.w3.org/2000/svg" width="1600" height="1000" viewBox="0 0 1600 1000" fill="none">
  <rect width="1600" height="1000" fill="#F5F5F7"/>
  <rect x="56" y="56" width="1488" height="888" rx="36" fill="#FFFFFF" stroke="#E1E4E8" stroke-width="4"/>
  <rect x="56" y="56" width="1488" height="92" rx="36" fill="#101010"/>
  <circle cx="110" cy="102" r="10" fill="#FF7B66"/>
  <circle cx="142" cy="102" r="10" fill="#FFCB5B"/>
  <circle cx="174" cy="102" r="10" fill="#55D784"/>
  <text x="220" y="110" fill="#FFFFFF" font-family="JetBrains Mono, monospace" font-size="24">GitHub Pages settings</text>

  <text x="120" y="220" fill="#FF4931" font-family="JetBrains Mono, monospace" font-size="24" letter-spacing="3">STEP 7</text>
  <text x="120" y="292" fill="#101010" font-family="Inter, Arial, sans-serif" font-size="68" font-weight="800">Enable GitHub Pages</text>
  <text x="120" y="346" fill="#5E6168" font-family="Inter, Arial, sans-serif" font-size="30">Use branch-based publishing for the simplest static-site setup.</text>

  <rect x="120" y="406" width="372" height="454" rx="28" fill="#F6F7F9" stroke="#E6E8ED" stroke-width="3"/>
  <text x="158" y="458" fill="#101010" font-family="Inter, Arial, sans-serif" font-size="28" font-weight="700">Settings</text>
  <rect x="150" y="506" width="312" height="54" rx="16" fill="#FFFFFF"/>
  <text x="176" y="542" fill="#5E6168" font-family="Inter, Arial, sans-serif" font-size="24">General</text>
  <rect x="150" y="572" width="312" height="54" rx="16" fill="#FFF2EE"/>
  <text x="176" y="608" fill="#A13B2D" font-family="Inter, Arial, sans-serif" font-size="24" font-weight="700">Pages</text>
  <rect x="150" y="638" width="312" height="54" rx="16" fill="#FFFFFF"/>
  <text x="176" y="674" fill="#5E6168" font-family="Inter, Arial, sans-serif" font-size="24">Actions</text>

  <rect x="530" y="406" width="950" height="454" rx="28" fill="#FFFFFF" stroke="#E6E8ED" stroke-width="3"/>
  <text x="578" y="468" fill="#101010" font-family="Inter, Arial, sans-serif" font-size="34" font-weight="800">Build and deployment</text>
  <text x="578" y="534" fill="#5E6168" font-family="Inter, Arial, sans-serif" font-size="28">Source</text>
  <rect x="578" y="560" width="824" height="74" rx="20" fill="#F6F7F9" stroke="#E6E8ED" stroke-width="3"/>
  <text x="614" y="606" fill="#101010" font-family="Inter, Arial, sans-serif" font-size="28">Deploy from a branch</text>

  <text x="578" y="694" fill="#5E6168" font-family="Inter, Arial, sans-serif" font-size="28">Branch</text>
  <rect x="578" y="720" width="264" height="74" rx="20" fill="#F6F7F9" stroke="#E6E8ED" stroke-width="3"/>
  <text x="614" y="766" fill="#101010" font-family="Inter, Arial, sans-serif" font-size="28">main</text>
  <rect x="868" y="720" width="264" height="74" rx="20" fill="#F6F7F9" stroke="#E6E8ED" stroke-width="3"/>
  <text x="904" y="766" fill="#101010" font-family="Inter, Arial, sans-serif" font-size="28">/ (root)</text>
  <rect x="1158" y="720" width="244" height="74" rx="20" fill="#FF4931"/>
  <text x="1246" y="766" fill="#FFFFFF" font-family="Inter, Arial, sans-serif" font-size="28" font-weight="800">Save</text>
</svg>
